<?xml version="1.0" standalone="no"?>
<!DOCTYPE svg PUBLIC "-//W3C//DTD SVG 20010904//EN"
 "http://www.w3.org/TR/2001/REC-SVG-20010904/DTD/svg10.dtd">
<svg version="1.0" xmlns="http://www.w3.org/2000/svg"
 width="400.000000pt" height="400.000000pt" viewBox="0 0 400.000000 400.000000"
 preserveAspectRatio="xMidYMid meet">
<metadata>
Created by potrace 1.14, written by Peter Selinger 2001-2017
</metadata>
<g transform="translate(0.000000,400.000000) scale(0.100000,-0.100000)"
fill="#000000" stroke="none">
<path d="M520 3849 c-14 -4 -110 -37 -215 -74 -104 -37 -198 -69 -208 -72 -17
-5 -17 -73 -15 -1472 l3 -1466 23 -85 c74 -272 244 -449 492 -516 90 -24 301
-25 390 0 313 84 638 396 770 739 48 122 60 196 56 337 -3 107 -8 138 -34 215
-102 303 -304 540 -571 672 -77 38 -97 44 -112 35 -10 -7 -108 -78 -216 -159
l-198 -148 47 -7 c131 -18 256 -87 379 -208 119 -117 186 -225 238 -377 93
-272 43 -571 -127 -755 -94 -101 -205 -146 -330 -135 -159 15 -273 128 -322
322 -19 75 -20 120 -20 1618 0 847 -1 1541 -3 1542 -1 1 -13 -1 -27 -6z"/>
<path d="M3020 2168 c-457 -93 -823 -485 -887 -951 -13 -96 -6 -277 15 -378
71 -340 276 -572 589 -665 74 -22 109 -26 223 -28 138 -1 174 3 266 30 80 23
250 112 344 179 91 65 267 236 342 332 l47 60 -38 45 -37 45 -90 -86 c-175
-169 -335 -282 -454 -321 -48 -16 -165 -19 -240 -7 -175 28 -343 149 -443 321
-48 82 -99 227 -118 336 -17 101 -19 289 -3 372 36 191 135 340 284 428 203
120 513 49 636 -146 10 -16 19 -31 20 -33 3 -3 56 25 261 137 l102 56 -17 29
c-29 50 -124 137 -187 172 -167 92 -392 118 -615 73z"/>
</g>
</svg>
